<mxfile host="" modified="2021-02-15T21:44:10.787Z" agent="5.0 (Windows NT 6.2; Win64; x64) AppleWebKit/537.36 (KHTML, like Gecko) Chrome/84.0.4147.105 Safari/537.36" etag="0xojzDDWnEPvy75UKDwP" version="13.7.9" type="embed"><diagram id="hJTNEEifBk9QCLEuQcVr" name="use-case"><mxGraphModel dx="655" dy="1822" grid="1" gridSize="10" guides="1" tooltips="1" connect="1" arrows="1" fold="1" page="1" pageScale="1" pageWidth="850" pageHeight="1100" math="0" shadow="0"><root><mxCell id="0"/><mxCell id="1" parent="0"/><mxCell id="2" value="Applikations-&lt;br&gt;nutzer" style="shape=umlActor;verticalLabelPosition=bottom;verticalAlign=top;html=1;" parent="1" vertex="1"><mxGeometry x="30" y="215" width="30" height="60" as="geometry"/></mxCell><mxCell id="7" value="Autoren ausgeben" style="ellipse;whiteSpace=wrap;html=1;" parent="1" vertex="1"><mxGeometry x="190" y="10" width="140" height="70" as="geometry"/></mxCell><mxCell id="8" value="Bücher ausgeben" style="ellipse;whiteSpace=wrap;html=1;" parent="1" vertex="1"><mxGeometry x="360" y="60" width="140" height="70" as="geometry"/></mxCell><mxCell id="9" value="Buch löschen" style="ellipse;whiteSpace=wrap;html=1;" parent="1" vertex="1"><mxGeometry x="240" y="170" width="140" height="70" as="geometry"/></mxCell><mxCell id="10" value="Autor löschen" style="ellipse;whiteSpace=wrap;html=1;" parent="1" vertex="1"><mxGeometry x="390" y="260" width="140" height="70" as="geometry"/></mxCell><mxCell id="11" value="Buch hinzufügen" style="ellipse;whiteSpace=wrap;html=1;" parent="1" vertex="1"><mxGeometry x="380" y="370" width="140" height="70" as="geometry"/></mxCell><mxCell id="12" value="Autor hinzufügen" style="ellipse;whiteSpace=wrap;html=1;" parent="1" vertex="1"><mxGeometry x="190" y="420" width="140" height="70" as="geometry"/></mxCell><mxCell id="45" value="Bücherverwaltung" style="shape=umlFrame;whiteSpace=wrap;html=1;width=170;height=40;" parent="1" vertex="1"><mxGeometry x="150" y="-60" width="410" height="610" as="geometry"/></mxCell><mxCell id="49" value="Use" style="endArrow=open;endSize=12;dashed=1;html=1;exitX=0.5;exitY=1;exitDx=0;exitDy=0;entryX=0.5;entryY=0;entryDx=0;entryDy=0;" edge="1" parent="1" source="9" target="10"><mxGeometry width="160" relative="1" as="geometry"><mxPoint x="340" y="290" as="sourcePoint"/><mxPoint x="500" y="290" as="targetPoint"/></mxGeometry></mxCell><mxCell id="53" value="" style="endArrow=none;html=1;entryX=0;entryY=0.5;entryDx=0;entryDy=0;" edge="1" parent="1" target="7"><mxGeometry width="50" height="50" relative="1" as="geometry"><mxPoint x="80" y="220" as="sourcePoint"/><mxPoint x="260" y="270" as="targetPoint"/></mxGeometry></mxCell><mxCell id="54" value="" style="endArrow=none;html=1;entryX=0;entryY=0.5;entryDx=0;entryDy=0;" edge="1" parent="1" target="8"><mxGeometry width="50" height="50" relative="1" as="geometry"><mxPoint x="100" y="220" as="sourcePoint"/><mxPoint x="260" y="270" as="targetPoint"/></mxGeometry></mxCell><mxCell id="55" value="" style="endArrow=none;html=1;entryX=0;entryY=0.5;entryDx=0;entryDy=0;" edge="1" parent="1" target="9"><mxGeometry width="50" height="50" relative="1" as="geometry"><mxPoint x="100" y="240" as="sourcePoint"/><mxPoint x="260" y="270" as="targetPoint"/></mxGeometry></mxCell><mxCell id="56" value="" style="endArrow=none;html=1;entryX=0;entryY=0.5;entryDx=0;entryDy=0;" edge="1" parent="1" target="10"><mxGeometry width="50" height="50" relative="1" as="geometry"><mxPoint x="90" y="250" as="sourcePoint"/><mxPoint x="260" y="270" as="targetPoint"/></mxGeometry></mxCell><mxCell id="57" value="" style="endArrow=none;html=1;entryX=0;entryY=0.5;entryDx=0;entryDy=0;" edge="1" parent="1" target="11"><mxGeometry width="50" height="50" relative="1" as="geometry"><mxPoint x="100" y="270" as="sourcePoint"/><mxPoint x="260" y="270" as="targetPoint"/></mxGeometry></mxCell><mxCell id="58" value="" style="endArrow=none;html=1;entryX=0;entryY=0.5;entryDx=0;entryDy=0;" edge="1" parent="1" target="12"><mxGeometry width="50" height="50" relative="1" as="geometry"><mxPoint x="80" y="280" as="sourcePoint"/><mxPoint x="260" y="270" as="targetPoint"/></mxGeometry></mxCell><mxCell id="59" value="Use" style="endArrow=open;endSize=12;dashed=1;html=1;exitX=0;exitY=1;exitDx=0;exitDy=0;entryX=1;entryY=0;entryDx=0;entryDy=0;" edge="1" parent="1" source="11" target="12"><mxGeometry width="160" relative="1" as="geometry"><mxPoint x="120" y="290" as="sourcePoint"/><mxPoint x="280" y="290" as="targetPoint"/></mxGeometry></mxCell></root></mxGraphModel></diagram></mxfile>